{"title":"Jackass Presents: Bad Grandpa.2013.Extended.True.1080p.BluRay.5.","uid":11017418,"size":2502103894,"categoryP":"video","categoryS":"hd___movies","magnet":"?xt=urn:btih:3c8cc63942dd13bdab1f725b52c4f00774c2c461&amp;dn=Jackass+Presents%3A+Bad+Grandpa.2013.Extended.True.1080p.BluRay.5.&amp;tr=udp%3A%2F%2Ftracker.openbittorrent.com%3A80&amp;tr=udp%3A%2F%2Fopen.demonii.com%3A1337&amp;tr=udp%3A%2F%2Ftracker.coppersurfer.tk%3A6969&amp;tr=udp%3A%2F%2Fexodus.desync.com%3A6969","seeders":1,"leechers":0,"uploader":".NVEE","files":-1,"time":1410521300,"description":"\n\nQuick note :\nPlease seed to a Share Ratio of at least 1.1\nIf you require a torrent release I have posted in the past, not seeding,...\nPlease do not hesitate to inform me in any means you find fit to do so.\nTorrent requests also &quot;Always Welcome.&quot;\n\n\nFULL_INFOs\n\n99.99% --- SYNCED GUARANTEED \n\n&quot;Totally scrutinized / analyzed to be a verified torrent.&quot;\n___________________________________________\n\nSource : Blu-ray ~ 1080p\n\n\n\nSpoken Language : English\n\nAudio : 6 ~ Channels Only\n\n\nSubs Info :\n\nEnglish_Forced .srt &amp; English_Forced Embedded UTF-8\n\nID : 3\nFormat : Timed Text\nCodec ID : tx3g\nDuration : 1h 32mn\nBit rate mode : Variable\nBit rate : 2 bps\nStream size : 1.48 KiB (0%)\nLanguage : English\nEncoded date : UTC 2014-09-10 20:15:32\nTagged date : UTC 2014-09-10 20:15:32\nAll .srt UTF-8 .idx &amp; .ass subs can be turned On/Off\n_____________________________________\n---------------------------------------------------------------------------------\n\nGeneral Metadata\n\nComplete name : Jackass Presents: Bad Grandpa.2013.Extended.True.1080p.BluRay.5.1.x264 . NVEE.mp4\nFormat : MPEG-4\nFormat profile : Base Media\nCodec ID : isom\nFile size : 2.33 GiB\nDuration : 1h 42mn\nOverall bit rate mode : Variable\nOverall bit rate : 3 264 Kbps\nEncoded date : UTC 2014-09-10 20:04:06\nTagged date : UTC 2014-09-10 20:04:06\n\n\nVideo\n\nID : 1\nFormat : AVC\nFormat/Info : Advanced Video Codec\nFormat profile : &lt;a class=&quot;__cf_email__&quot; href=&quot;/cdn-cgi/l/email-protection&quot; data-cfemail=&quot;4e062729260e027a607f&quot;&gt;[email&amp;#160;protected]&lt;/a&gt;&lt;script cf-hash='f9e31' type=&quot;text/javascript&quot;&gt;\n/* &lt;![CDATA[ */!function(){try{var t=&quot;currentScript&quot;in document?document.currentScript:function(){for(var t=document.getElementsByTagName(&quot;script&quot;),e=t.length;e--;)if(t[e].getAttribute(&quot;cf-hash&quot;))return t[e]}();if(t&amp;&amp;t.previousSibling){var e,r,n,i,c=t.previousSibling,a=c.getAttribute(&quot;data-cfemail&quot;);if(a){for(e=&quot;&quot;,r=parseInt(a.substr(0,2),16),n=2;a.length-n;n+=2)i=parseInt(a.substr(n,2),16)^r,e+=String.fromCharCode(i);e=document.createTextNode(e),c.parentNode.replaceChild(e,c)}}}catch(u){}}();/* ]]&gt; */&lt;/script&gt;\nFormat settings, CABAC : Yes\nFormat settings, ReFrames : 3 frames\nCodec ID : avc1\nCodec ID/Info : Advanced Video Coding\nDuration : 1h 42mn\nBit rate : 2 621 Kbps\nMaximum bit rate : 14.2 Mbps\nWidth : 1 920 pixels\nHeight : 1 080 pixels\nDisplay aspect ratio : 16:9\nFrame rate mode : Constant\nFrame rate : 23.976 fps\nColor space : YUV\nChroma subsampling : 4:2:0\nBit depth : 8 bits\nScan type : Progressive\nBits/(Pixel*Frame) : 0.053\nStream size : 1.87 GiB (80%)\nWriting library : x264 core 142 r2453 ea0ca51\nEncoded from Physical Blu-ray / Region free\n\n\nAudio\n\nID : 2\nFormat : AC-3\nFormat/Info : Audio Coding 3\nMode extension : CM (complete main)\nFormat settings, Endianness : Big\nCodec ID : ac-3\nDuration : 1h 42mn\nBit rate mode : Constant\nBit rate : 640 Kbps\nChannel(s) : 6 channels\nChannel positions : Front: L C R, Side: L R, LFE\nSampling rate : 48.0 KHz\nBit depth : 16 bits\nCompression mode : Lossy\nStream size : 468 MiB (20%)\nLanguage : English\nEncoded date : UTC 2014-09-10 20:14:16\nTagged date : UTC 2014-09-10 20:15:32\nEncoded from Physical Blu-ray 6 Channel audio &quot;Always&quot;.\n\n\nEnj0y !","torrent":{"xt":"urn:btih:3c8cc63942dd13bdab1f725b52c4f00774c2c461","amp;dn":"Jackass+Presents%3A+Bad+Grandpa.2013.Extended.True.1080p.BluRay.5.","amp;tr":["udp%3A%2F%2Ftracker.openbittorrent.com%3A80","udp%3A%2F%2Fopen.demonii.com%3A1337","udp%3A%2F%2Ftracker.coppersurfer.tk%3A6969","udp%3A%2F%2Fexodus.desync.com%3A6969"],"infoHash":"3c8cc63942dd13bdab1f725b52c4f00774c2c461","infoHashBuffer":{"type":"Buffer","data":[60,140,198,57,66,221,19,189,171,31,114,91,82,196,240,7,116,194,196,97]},"announce":[],"urlList":[]}}